<svg xmlns="http://www.w3.org/2000/svg" viewBox="0 0 600 540" role="img" aria-label="Registros de propiedad intelectual: software, datasets, plataformas y apps">
  <rect width="600" height="540" fill="#ffffff"/>

  <!-- Panel informativo -->
  <rect x="90" y="70" width="420" height="360" rx="24" fill="#ecfdf5"/>

  <!-- Ventana de software -->
  <rect x="140" y="140" width="320" height="220" rx="16" fill="#ffffff" stroke="#bbf7d0" stroke-width="1.5"/>
  <path d="M140 156 a16 16 0 0 1 16 -16 h288 a16 16 0 0 1 16 16 v20 h-320 Z" fill="#047857"/>
  <circle cx="162" cy="158" r="4" fill="#ffffff"/>
  <circle cx="177" cy="158" r="4" fill="#a7f3d0"/>
  <circle cx="192" cy="158" r="4" fill="#a7f3d0"/>

  <!-- Líneas de código -->
  <g>
    <rect x="162" y="200" width="150" height="9" rx="4.5" fill="#cbd5e1"/>
    <rect x="162" y="220" width="110" height="9" rx="4.5" fill="#34d399"/>
    <rect x="162" y="240" width="172" height="9" rx="4.5" fill="#cbd5e1"/>
    <rect x="162" y="260" width="96"  height="9" rx="4.5" fill="#cbd5e1"/>
    <rect x="162" y="280" width="140" height="9" rx="4.5" fill="#047857"/>
    <rect x="162" y="300" width="80"  height="9" rx="4.5" fill="#cbd5e1"/>
  </g>

  <!-- Mini gráfico de datos -->
  <g>
    <line x1="350" y1="320" x2="446" y2="320" stroke="#cbd5e1" stroke-width="2"/>
    <rect x="356" y="286" width="18" height="34" rx="3" fill="#34d399"/>
    <rect x="382" y="262" width="18" height="58" rx="3" fill="#047857"/>
    <rect x="408" y="298" width="18" height="22" rx="3" fill="#34d399"/>
    <rect x="434" y="274" width="12" height="46" rx="3" fill="#047857"/>
  </g>

  <!-- Título informativo -->
  <text x="300" y="478" text-anchor="middle" font-family="Arial, Helvetica, sans-serif" font-size="32" font-weight="700" fill="#065f46">Propiedad Intelectual</text>
  <text x="300" y="512" text-anchor="middle" font-family="Arial, Helvetica, sans-serif" font-size="16" fill="#047857" letter-spacing="0.5">Software · Datasets · Plataformas · Apps</text>
</svg>
